Coordinates
version=1
nRows=17
nColumns=40
inDegrees=yes

Units are S.I. units (second, meters, Newtons, ...)
Angles are in degrees.

endheader
time	pelvis_tilt	pelvis_list	pelvis_rotation	pelvis_tx	pelvis_ty	pelvis_tz	hip_flexion_r	hip_adduction_r	hip_rotation_r	knee_angle_r	knee_angle_r_beta	ankle_angle_r	subtalar_angle_r	mtp_angle_r	hip_flexion_l	hip_adduction_l	hip_rotation_l	knee_angle_l	knee_angle_l_beta	ankle_angle_l	subtalar_angle_l	mtp_angle_l	lumbar_extension	lumbar_bending	lumbar_rotation	arm_flex_r	arm_add_r	arm_rot_r	elbow_flex_r	pro_sup_r	wrist_flex_r	wrist_dev_r	arm_flex_l	arm_add_l	arm_rot_l	elbow_flex_l	pro_sup_l	wrist_flex_l	wrist_dev_l
     26.86528571	     -4.71876513	     -6.07808844	     -1.98018612	      1.08238196	      0.93211368	      0.42231591	     33.94834107	     -3.42131694	     -5.49271764	     53.09008323	     53.09008323	      0.48963520	    -13.12729649	     -1.60799685	     14.48901526	     -8.08126004	     -5.55157433	     23.11724186	     23.11724186	     14.40749421	    -12.72380589	      1.85148310	    -12.79252696	      3.68149947	      0.34654002	      4.45829079	    -17.49213635	     -8.82296984	     26.12911546	     47.53283527	      0.00000000	      0.00000000	      7.25875102	    -17.45543549	     -6.35679243	     45.57367306	     45.99071737	      0.00000000	      0.00000000
     26.87807143	     -4.92264059	     -6.19156706	     -2.61698755	      1.08181017	      0.93212702	      0.42326977	     34.10310450	     -3.01978816	     -5.62979916	     49.59233664	     49.59233664	      0.82538440	    -12.00197490	     -1.46524697	     14.11105369	     -8.30517449	     -5.96747447	     22.86400294	     22.86400294	     14.56990992	    -12.94150898	      1.89110267	    -12.78639532	      3.86668666	      0.35816829	      4.40499912	    -17.59030581	     -8.99079530	     26.07361110	     47.54122833	      0.00000000	      0.00000000	      7.31196257	    -17.47824451	     -6.32748273	     45.58295621	     45.99472456	      0.00000000	      0.00000000
     26.89085714	     -5.04397024	     -6.29025747	     -3.22038861	      1.08132207	      0.93221372	      0.42427305	     33.94429952	     -2.65691415	     -5.90463717	     45.69158589	     45.69158589	      1.18074796	    -10.43525785	     -1.51132916	     13.63233660	     -8.50654012	     -6.37969607	     22.60378766	     22.60378766	     14.74684814	    -13.10556844	      1.91382661	    -12.89813828	      4.03978458	      0.39899928	      4.40302490	    -17.66427199	     -9.22969886	     26.03544732	     47.55256123	      0.00000000	      0.00000000	      7.35799578	    -17.44402875	     -6.24309421	     45.72847990	     45.99636603	      0.00000000	      0.00000000
     26.90364286	     -5.29279086	     -6.35262863	     -3.84958847	      1.08083382	      0.93205083	      0.42547015	     33.75515562	     -2.24403031	     -6.14742261	     41.49716537	     41.49716537	      1.54594944	     -8.67288304	     -1.52469945	     13.28115466	     -8.68425428	     -6.82586086	     22.33731561	     22.33731561	     14.92382544	    -13.28105743	      1.92245356	    -12.84619254	      4.18376770	      0.46266181	      4.44444848	    -17.60465729	     -9.41811081	     26.05662618	     47.55921266	      0.00000000	      0.00000000	      7.32574248	    -17.41719390	     -6.14533870	     45.90871592	     45.99459320	      0.00000000	      0.00000000
     26.91642857	     -5.46682952	     -6.39286117	     -4.43102212	      1.08052788	      0.93193632	      0.42672352	     33.25147934	     -1.86348328	     -6.56251112	     37.01187371	     37.01187371	      1.86693120	     -6.54383601	     -1.56108337	     12.84023808	     -8.83019787	     -7.26929423	     22.06864511	     22.06864511	     15.11741149	    -13.41429397	      1.90336419	    -12.87804222	      4.29358380	      0.49712501	      4.52532723	    -17.53337773	     -9.64507669	     26.11389836	     47.56637777	      0.00000000	      0.00000000	      7.26589518	    -17.35006672	     -6.00181888	     46.15995415	     45.98977163	      0.00000000	      0.00000000
     26.92921429	     -5.62586681	     -6.39379265	     -4.98255414	      1.08040138	      0.93172318	      0.42804022	     32.53489695	     -1.49197616	     -7.07009494	     32.35937676	     32.35937676	      2.15120036	     -4.17002552	     -1.50185459	     12.36831889	     -8.92799745	     -7.69732246	     21.78645815	     21.78645815	     15.31722697	    -13.51552136	      1.85240927	    -12.87750682	      4.38622481	      0.52620817	      4.63536755	    -17.39509761	     -9.89517961	     26.21700058	     47.57220668	      0.00000000	      0.00000000	      7.15724001	    -17.26780611	     -5.82268665	     46.44914046	     45.98245673	      0.00000000	      0.00000000
     26.94200000	     -5.71123811	     -6.34596908	     -5.49188933	      1.08054162	      0.93147253	      0.42944252	     31.60147104	     -1.15738291	     -7.73472934	     27.74180961	     27.74180961	      2.38525699	     -1.54014439	     -1.26845291	     11.79959698	     -8.96720207	     -8.14398881	     21.49365534	     21.49365534	     15.53282853	    -13.57213313	      1.74373219	    -12.94916072	      4.43241457	      0.54878552	      4.77902018	    -17.19205657	    -10.22702411	     26.38725318	     47.57752602	      0.00000000	      0.00000000	      6.99368489	    -17.19024903	     -5.58286014	     46.80657030	     45.97285914	      0.00000000	      0.00000000
     26.95478571	     -5.95435212	     -6.26901046	     -5.97818773	      1.08085772	      0.93086376	      0.43110332	     30.77271695	     -0.72302269	     -8.27000269	     23.35944822	     23.35944822	      2.51341314	      0.62202590	     -0.51950920	     11.39316631	     -8.98784957	     -8.53293012	     21.18391417	     21.18391417	     15.73095472	    -13.65843268	      1.64097255	    -12.73800097	      4.45099136	      0.56290871	      4.85345935	    -16.87246998	    -10.42094033	     26.55904155	     47.57509468	      0.00000000	      0.00000000	      6.81433684	    -17.08907489	     -5.39238591	     47.03679699	     45.96324179	      0.00000000	      0.00000000
     26.96757143	     -6.06447093	     -6.12157659	     -6.41213169	      1.08150048	      0.93020268	      0.43283965	     29.84892225	     -0.38203201	     -8.92028990	     19.53267557	     19.53267557	      2.70199043	      2.66933091	      0.46638075	     10.84717420	     -8.91931739	     -8.93273542	     20.91359528	     20.91359528	     15.98067614	    -13.72104989	      1.48691705	    -12.62960324	      4.37114637	      0.57271269	      4.96114449	    -16.55140363	    -10.58883045	     26.78400966	     47.56897080	      0.00000000	      0.00000000	      6.64321468	    -16.98336528	     -5.20427113	     47.24162721	     45.95336215	      0.00000000	      0.00000000
     26.98035714	     -5.92711422	     -6.04127830	     -6.74477221	      1.08260647	      0.92980378	      0.43456894	     28.70881329	     -0.09300338	    -10.00458867	     16.42988297	     16.42988297	      3.15503303	      5.03526757	      2.08126023	      9.97512363	     -8.87955830	     -9.30161974	     20.56590164	     20.56590164	     16.23429498	    -13.68788537	      1.21326408	    -12.75384962	      4.39219759	      0.54888985	      5.09270265	    -16.26354819	    -10.90264948	     27.20274301	     47.55695377	      0.00000000	      0.00000000	      6.36661183	    -16.78800002	     -4.88619083	     47.55044571	     45.93839753	      0.00000000	      0.00000000
     26.99314286	     -6.04800347	     -5.88134273	     -7.10059020	      1.08370865	      0.92897356	      0.43649919	     28.23093834	      0.09906695	    -11.08012779	     14.66449549	     14.66449549	      4.90888764	      6.97693057	      7.54488168	      9.38648821	     -8.77711237	     -9.61263299	     20.18652901	     20.18652901	     16.20921134	    -13.86544769	      0.44187336	    -12.56355500	      4.32656349	      0.70285790	      4.78093503	    -15.82223642	    -12.13571481	     28.34861339	     47.48571557	      0.00000000	      0.00000000	      6.08490256	    -16.76842138	     -3.96263753	     48.16966805	     45.94625903	      0.00000000	      0.00000000
     27.00592857	     -6.11233132	     -5.73274163	     -7.37900939	      1.08516472	      0.92810194	      0.43861374	     27.54690341	      0.39628498	    -11.72191890	     13.07950483	     13.07950483	      4.86142949	      7.59987783	      7.96285396	      8.76235917	     -8.68951790	     -9.88991909	     19.89475499	     19.89475499	     16.52412738	    -13.86179383	      0.39792093	    -12.31794032	      4.27992610	      0.70238665	      4.88318239	    -15.43836431	    -12.13169684	     28.52724443	     47.46619568	      0.00000000	      0.00000000	      5.91335156	    -16.51110352	     -3.84512969	     48.05719334	     45.94162334	      0.00000000	      0.00000000
     27.01871429	     -6.07020138	     -5.64506954	     -7.60858966	      1.08694258	      0.92732586	      0.44083500	     26.82142664	      0.66725222	    -12.46157079	     12.22421252	     12.22421252	      4.80887365	      8.05718768	      8.14318493	      7.98369186	     -8.65679353	    -10.16307504	     19.57558848	     19.57558848	     16.85913704	    -13.77275474	      0.35493161	    -12.15678072	      4.30276375	      0.68978823	      4.98748397	    -15.05800736	    -12.10513578	     28.85584025	     47.43687233	      0.00000000	      0.00000000	      5.70684866	    -16.21573628	     -3.73253139	     47.92855203	     45.93780566	      0.00000000	      0.00000000
     27.03150000	     -6.03085720	     -5.54531678	     -7.79390381	      1.08891557	      0.92643644	      0.44317561	     26.19389563	      0.85614443	    -13.14924967	     12.00823439	     12.00823439	      4.56636489	      8.28268639	      7.58255450	      7.22613976	     -8.62612961	    -10.45886728	     19.29966230	     19.29966230	     17.27644997	    -13.56744157	      0.32287652	    -11.96496300	      4.31768466	      0.71776715	      4.87605523	    -14.70279012	    -11.98678157	     29.64998602	     47.35930276	      0.00000000	      0.00000000	      5.52816156	    -15.89296749	     -3.67472754	     47.73932477	     45.95294404	      0.00000000	      0.00000000
     27.04428571	     -5.96230356	     -5.45896646	     -7.91530376	      1.09116926	      0.92542156	      0.44565663	     25.51716769	      1.06340767	    -13.41379790	     12.07423227	     12.07423227	      3.48414484	      7.71263131	      4.59368189	      6.48407528	     -8.62866026	    -10.73508030	     19.13999130	     19.13999130	     17.78881744	    -13.28686252	      0.56170729	    -11.74423365	      4.35624356	      0.91959142	      4.27532036	    -14.51032538	    -11.32390337	     31.36233410	     47.14382649	      0.00000000	      0.00000000	      5.50171201	    -15.44320170	     -3.74572855	     47.37721725	     46.01862071	      0.00000000	      0.00000000
     27.05707143	     -5.94945980	     -5.45992960	     -7.99210026	      1.09349176	      0.92439752	      0.44820031	     24.96036132	      1.27274347	    -13.70061355	     12.58356881	     12.58356881	      3.32667053	      7.38911047	      4.44856939	      5.84628000	     -8.71232992	    -10.78716769	     19.04595618	     19.04595618	     18.13468722	    -13.34623450	      0.51353694	    -11.43947794	      4.51084891	      1.00850338	      4.35837392	    -14.13390617	    -11.23736507	     31.46831163	     47.13008974	      0.00000000	      0.00000000	      5.22914789	    -15.05664659	     -3.64763279	     47.27543156	     46.00738695	      0.00000000	      0.00000000
     27.06985714	     -5.73347979	     -5.29347151	     -8.06529252	      1.09609494	      0.92351676	      0.45086807	     24.45529307	      1.26234691	    -13.43750972	     13.67689990	     13.67689990	      3.06936483	      6.42900449	      3.18588402	      4.85274213	     -8.59916995	    -11.13697950	     18.71294265	     18.71294265	     18.56241426	    -12.96337524	      0.64861110	    -11.32270360	      4.44008007	      0.88327585	      4.47760067	    -13.82493037	    -10.96523370	     32.06325860	     47.07089909	      0.00000000	      0.00000000	      4.96592443	    -14.84114696	     -3.68874157	     46.94265140	     46.01515857	      0.00000000	      0.00000000
